<svg width="26" height="17" viewBox="0 0 28 19" fill="none" xmlns="http://www.w3.org/2000/svg">
<path d="M14 0C8.03175 0 2.8254 3.44375 0.285714 8.43125C-0.0952381 9.14375 -0.0952381 9.975 0.285714 10.6875C2.8254 15.5562 8.03175 19 14 19C19.9683 19 25.1746 15.5562 27.7143 10.5687C28.0952 9.85625 28.0952 9.025 27.7143 8.3125C25.1746 3.44375 19.9683 0 14 0ZM14 14.25C11.2063 14.25 8.92064 12.1125 8.92064 9.5C8.92064 6.8875 11.2063 4.75 14 4.75C16.7937 4.75 19.0794 6.8875 19.0794 9.5C19.0794 12.1125 16.7937 14.25 14 14.25Z" fill="black"/>
</svg>
